<?xml version="1.0" encoding="utf-8"?>
<!-- TLMAPS  -->
<!DOCTYPE svg PUBLIC "-//W3C//DTD SVG 1.0//EN" "http://www.w3.org/TR/2001/REC-SVG-20010904/DTD/svg10.dtd" [
	<!ENTITY ns_svg "http://www.w3.org/2000/svg">
	<!ENTITY ns_xlink "http://www.w3.org/1999/xlink">
]>
<svg width="664.463" height="535.932" viewBox="0 0 664.463 535.932">
<g>
	<polygon style="fill-rule:evenodd;clip-rule:evenodd;fill:#0098FF;" points="464.263,448.432 446.664,447.231 443.463,445.231 
		445.655,441.396 446.463,441.331 454.664,436.432 460.164,438.731 461.164,435.331 471.563,432.031 466.063,424.631 
		465.396,424.393 465.563,424.331 466.863,423.331 466.263,419.631 469.363,417.331 464.363,411.531 464.263,404.331 
		460.664,400.531 462.563,395.531 454.263,395.932 439.463,391.131 438.263,386.731 437.863,383.231 439.263,380.031 
		439.067,379.912 439.561,379.785 440.555,368.852 432.007,361.993 435.088,357.421 433.563,352.031 429.721,347.879 
		423.558,345.891 418.787,344.897 415.563,345.031 414.712,344.4 414.696,344.516 415.664,345.131 411.164,352.531 412.963,359.531 
		410.164,364.231 409.301,364.825 397.963,372.631 392.363,367.131 393.963,363.631 388.763,358.531 389.463,354.831 
		387.263,348.031 379.463,346.231 373.763,345.432 372.363,347.631 375.963,351.731 366.263,358.031 360.463,367.831 
		356.563,367.932 350.063,365.131 344.563,359.731 345.163,355.231 355.663,348.432 353.063,346.331 348.963,341.932 
		344.863,345.432 343.963,348.631 343.908,348.668 344.763,345.531 341.863,343.731 336.376,344.33 330.163,350.932 
		329.963,350.831 329.563,350.731 320.663,346.331 317.363,341.432 312.828,339.164 312.144,339.263 308.763,340.131 
		306.723,345.025 306.713,345.033 306.463,345.631 304.14,347.092 299.963,350.432 286.963,347.031 282.063,353.031 
		283.363,356.331 274.963,360.031 269.463,358.932 270.463,360.531 268.263,363.531 269.963,368.831 265.763,372.731 
		265.463,376.432 264.063,383.631 270.463,385.131 271.263,388.531 267.463,395.531 265.663,400.231 269.663,402.831 
		266.763,409.131 263.963,411.231 264.863,414.531 263.963,419.331 264.38,419.119 265.257,434.318 264.863,434.831 
		262.363,439.831 255.263,443.031 254.863,450.031 251.563,451.331 245.663,455.831 247.263,458.831 252.863,460.131 
		238.963,470.331 237.463,473.731 233.763,474.231 232.563,477.432 235.063,480.231 228.663,484.432 222.863,491.432 
		223.563,500.831 223.763,503.331 226.963,512.432 233.963,523.932 241.963,525.131 255.063,533.932 263.163,535.932 
		265.463,531.231 270.763,529.731 280.163,524.831 282.763,518.731 281.563,511.231 284.463,508.531 292.063,506.531 
		295.363,499.731 298.263,498.331 309.663,499.932 313.063,498.131 318.263,499.932 330.663,499.231 329.963,494.331 
		335.563,492.231 338.263,489.331 343.263,490.831 345.063,489.231 346.163,489.531 347.863,482.531 353.363,475.531 
		355.963,477.731 363.363,477.531 374.663,472.531 376.463,469.731 377.963,462.031 383.463,462.031 389.963,469.131 
		392.563,473.631 396.763,460.231 403.063,459.432 407.863,465.531 413.164,471.231 417.063,470.031 420.763,471.631 
		424.378,469.659 424.551,469.765 424.263,469.932 426.59,471.237 429.963,473.131 432.963,470.631 444.763,471.231 
		447.963,467.231 454.463,460.031 463.463,455.831 463.164,454.631 466.664,447.531 	"/>
</g>
<g>
	<polygon style="fill:#0098FF;" points="465.063,236.231 462.963,230.932 453.263,214.631 449.763,213.331 449.715,211.591 
		450.475,209.987 453.042,205.758 452.892,205.606 446.293,201.301 444.164,199.731 437.164,201.331 434.852,197.369 
		438.918,187.706 438.594,185.824 438.763,185.531 436.363,175.831 435.164,171.331 427.363,176.031 426.463,170.631 
		422.164,166.831 411.963,172.031 409.164,178.731 403.463,183.831 396.263,195.231 392.463,195.531 392.663,198.731 
		380.263,195.131 378.363,202.431 370.363,203.031 364.363,212.831 364.125,215.479 362.921,215.294 362.402,222.029 
		379.687,227.647 379.738,228.188 379.563,228.331 380.063,233.631 384.163,239.531 385.263,244.731 382.763,251.531 
		384.463,255.031 389.263,257.831 390.063,268.932 397.763,272.631 404.664,272.631 409.664,266.932 419.763,267.932 
		423.164,270.932 426.463,271.131 445.363,266.631 446.164,259.731 450.263,256.131 447.863,254.432 454.664,250.831 
		465.063,238.231 464.528,236.88 	"/>
</g>
<g>
	<polygon style="fill-rule:evenodd;clip-rule:evenodd;fill:#0098FF;" points="369.363,176.531 375.363,175.431 379.463,176.231 
		381.263,181.431 379.463,190.031 380.106,195.735 380.263,195.131 392.536,198.694 392.463,197.531 392.587,197.521 
		392.463,195.531 396.263,195.231 403.463,183.831 409.164,178.731 411.963,172.031 422.164,166.831 424.662,169.04 
		425.763,169.131 426.563,164.431 432.063,165.531 438.363,164.931 441.763,156.131 446.963,153.831 446.963,143.331 
		448.463,137.631 446.863,133.431 443.063,134.831 444.263,123.931 442.463,118.631 445.963,117.131 441.363,111.531 
		439.863,106.631 438.363,104.131 434.664,106.131 430.664,105.931 424.263,98.531 417.263,102.731 409.164,104.131 
		403.664,109.731 389.165,115.454 388.466,115.667 388.663,110.431 382.063,107.431 380.517,108.877 377.263,108.131 
		375.963,105.631 368.563,105.631 364.963,107.331 357.063,105.831 351.671,107.511 351.163,105.931 347.263,101.931 
		342.963,103.331 339.863,99.131 325.463,100.131 325.463,103.931 304.163,101.431 298.463,105.931 295.963,116.831 
		302.963,130.531 294.563,140.131 296.763,141.931 309.063,143.431 313.963,149.631 320.463,160.631 327.663,159.531 
		334.963,160.731 334.163,164.831 334.963,165.331 337.363,167.931 348.563,168.831 353.363,166.931 357.963,168.831 
		369.263,166.031 	"/>
</g>
<g>
	<polygon style="fill-rule:evenodd;clip-rule:evenodd;fill:#0098FF;" points="555.363,270.331 556.463,269.432 554.463,261.731 
		542.763,257.731 539.763,254.932 540.463,251.631 547.563,247.831 553.164,231.731 549.763,220.831 550.463,220.231 
		553.463,213.731 550.164,214.331 548.063,209.431 555.763,209.031 563.963,200.631 557.863,188.731 553.164,185.231 
		549.963,180.531 538.563,176.231 533.763,170.931 531.763,162.431 527.063,159.631 515.664,157.431 512.763,159.931 
		509.963,147.431 504.763,139.831 498.363,128.831 494.164,125.331 489.863,128.831 479.664,130.431 477.863,130.131 
		473.563,127.131 466.363,127.831 466.263,131.131 452.363,131.331 446.863,133.431 448.463,137.631 446.963,143.331 
		446.963,153.831 441.763,156.131 438.363,164.931 432.063,165.531 426.563,164.431 425.763,169.131 424.662,169.04 
		426.463,170.631 427.363,176.031 435.164,171.331 436.363,175.831 438.763,185.531 438.594,185.824 438.918,187.706 
		434.852,197.369 437.164,201.331 444.164,199.731 446.293,201.301 452.892,205.606 453.042,205.758 450.574,209.824 
		449.716,211.622 449.763,213.331 453.263,214.631 462.963,230.932 465.063,236.231 464.616,236.772 464.643,236.838 
		464.771,237.155 464.669,237.237 465.063,238.231 463.729,239.848 463.728,239.85 454.664,250.831 447.863,254.432 
		450.263,256.131 446.164,259.731 445.363,266.631 443.563,273.631 444.164,279.031 446.963,282.331 454.563,284.131 
		458.164,282.831 461.263,287.531 466.664,289.531 461.563,292.331 455.463,299.432 455.963,304.731 458.463,310.831 
		462.963,307.932 470.263,305.531 472.164,296.731 483.963,306.531 487.164,304.531 487.464,304.446 487.589,304.747 
		496.664,301.831 498.818,304.417 501.625,303.922 508.065,302.271 528.375,302.931 530.963,313.031 536.63,313.994 
		537.497,313.031 537.563,313.031 537.542,312.98 538.117,312.343 534.319,302.931 538.963,299.932 537.763,291.432 
		539.248,289.623 540.063,290.331 541.563,291.531 551.263,293.932 555.963,290.432 562.063,280.831 554.063,273.031 	"/>
</g>
<g>
	<polygon style="fill-rule:evenodd;clip-rule:evenodd;fill:#0098FF;" points="140.963,453.631 146.363,448.131 141.763,439.932 
		144.663,437.531 148.663,436.731 148.863,433.031 158.663,423.531 151.963,422.231 149.363,427.131 133.463,427.731 
		126.036,424.897 126.036,424.896 125.863,424.831 126.002,424.702 125.974,424.54 128.263,421.731 127.483,414.515 
		122.163,413.231 122.242,412.98 123.263,409.731 126.663,407.531 143.363,400.831 149.463,400.631 157.663,394.932 
		171.563,397.631 166.663,392.231 166.563,387.131 162.063,383.631 158.263,382.631 152.763,384.531 140.963,377.531 
		138.263,375.331 136.863,365.631 138.163,362.631 143.463,360.031 145.163,356.831 157.763,353.331 165.463,353.131 
		172.663,356.231 179.863,353.731 180.863,355.932 184.563,351.731 190.163,349.331 190.475,349.44 190.475,349.44 195.563,351.231 
		202.963,338.231 213.863,334.231 216.663,329.331 224.563,327.331 226.263,320.631 229.763,319.031 228.463,315.631 
		228.963,308.331 229.763,301.731 233.263,295.331 231.363,288.231 232.063,284.631 231.863,275.031 234.763,272.331 
		238.263,263.231 232.863,250.831 229.763,248.432 225.112,252.277 211.063,247.432 210.158,247.213 202.428,245.338 
		200.803,249.255 200.563,250.432 190.963,253.831 192.363,265.331 184.063,270.031 183.829,269.939 183.663,270.031 
		170.363,264.831 172.663,252.031 169.263,249.932 167.363,252.731 159.763,253.031 153.463,257.432 147.563,256.031 
		141.163,265.831 140.463,274.531 135.697,282.375 135.663,282.331 134.563,286.031 129.763,289.331 125.363,295.932 
		127.063,301.631 129.863,304.531 148.563,307.432 146.163,312.231 139.563,315.932 137.463,315.932 129.663,314.031 
		124.863,317.432 114.863,319.631 107.163,317.831 101.751,329.427 107.463,332.331 107.158,332.822 107.363,332.932 
		101.63,342.295 105.763,344.831 108.663,347.231 108.335,347.56 108.663,347.831 106.163,350.331 100.463,350.131 98.263,353.031 
		92.863,354.432 78.063,360.432 66.863,371.831 58.663,378.331 57.663,381.831 53.063,389.331 54.063,395.031 53.863,401.932 
		52.663,405.331 54.063,408.631 50.263,415.331 50.263,419.031 52.363,423.131 50.063,431.031 55.463,428.831 63.662,430.524 
		64.584,431.025 61.463,442.631 73.963,438.531 77.563,443.031 84.663,446.331 88.663,446.231 94.963,438.831 97.663,438.731 
		98.463,450.031 104.163,449.031 108.201,450.228 108.609,450.657 110.206,451.355 113.463,455.031 119.163,453.131 
		127.663,453.432 	"/>
</g>
<g>
	<polygon style="fill:#0098FF;" points="235.063,480.231 232.563,477.432 233.689,474.428 233.69,474.427 233.763,474.231 
		233.804,474.226 233.859,474.13 233.863,474.131 237.504,473.639 238.963,470.331 239.046,470.271 239.063,470.231 
		252.836,460.125 247.263,458.831 245.663,455.831 250.286,452.306 251.548,451.321 251.563,451.331 254.863,450.031 
		255.263,443.031 262.363,439.831 264.863,434.831 263.963,419.331 264.863,414.531 263.963,411.231 266.763,409.131 
		269.663,402.831 265.663,400.231 267.463,395.531 271.263,388.531 270.463,385.131 264.465,383.726 264.063,383.631 
		264.943,379.105 265.532,373.416 265.171,373.019 265.263,372.432 269.463,368.531 267.763,363.231 270.063,360.231 
		268.963,358.631 263.463,353.932 260.763,348.631 260.263,347.831 260.263,347.631 253.363,349.831 247.14,350.221 
		238.163,337.731 226.963,345.631 222.963,344.631 215.863,348.231 214.063,355.631 205.363,357.831 196.563,360.031 
		192.463,360.831 185.863,361.131 181.363,361.331 180.863,355.932 179.863,353.731 172.663,356.231 165.463,353.131 
		157.763,353.331 145.163,356.831 143.463,360.031 138.163,362.631 136.863,365.631 138.263,375.331 140.963,377.531 
		152.763,384.531 158.263,382.631 162.063,383.631 166.563,387.131 166.663,392.231 171.563,397.631 157.663,394.932 
		149.463,400.631 143.363,400.831 126.663,407.531 123.263,409.731 122.163,413.231 127.963,414.631 128.763,422.131 
		125.863,424.831 133.463,427.731 149.363,427.131 151.963,422.231 158.663,423.531 148.863,433.031 148.663,436.731 
		144.663,437.531 141.763,439.932 146.363,448.131 140.963,453.631 127.663,453.432 125.063,453.432 125.763,456.531 
		121.563,461.731 122.363,469.231 129.763,475.031 131.863,480.331 136.063,484.432 141.763,479.831 150.863,479.031 
		155.863,481.631 163.563,482.031 165.463,482.631 167.363,479.331 177.963,473.731 183.263,479.131 193.463,478.231 
		193.824,477.997 195.863,482.331 202.363,486.531 205.263,482.231 210.062,484.169 210.463,485.331 215.463,490.631 
		222.863,491.432 228.663,484.432 	"/>
</g>
<g>
	<polygon style="fill-rule:evenodd;clip-rule:evenodd;fill:#0098FF;" points="657.963,438.432 659.363,435.031 657.063,428.432 
		658.664,425.131 664.463,420.131 663.664,415.231 658.863,412.531 655.563,410.831 652.763,405.031 647.363,388.731 
		650.563,381.831 646.463,378.131 644.164,373.131 641.063,369.031 631.164,359.231 619.763,356.331 614.463,350.932 
		611.164,350.031 610.063,344.731 600.563,343.331 595.363,340.731 594.164,337.731 592.763,332.531 587.563,327.531 
		582.863,317.932 575.664,308.631 574.863,303.331 577.463,296.932 575.164,292.531 576.664,289.731 571.263,287.631 
		565.963,277.731 562.063,280.831 555.963,290.432 551.263,293.932 541.563,291.531 540.063,290.331 539.247,289.624 
		537.763,291.432 538.963,299.932 534.319,302.931 538.117,312.343 537.542,312.98 537.563,313.031 537.497,313.031 536.63,313.994 
		533.32,313.432 531.063,313.432 530.996,313.037 530.963,313.031 528.375,302.931 508.065,302.271 501.625,303.922 
		498.818,304.417 496.664,301.831 487.589,304.747 487.464,304.446 487.164,304.531 483.963,306.531 472.164,296.731 
		470.263,305.531 462.963,307.932 464.463,311.131 462.363,315.932 464.164,320.131 459.164,326.031 463.164,332.631 
		463.363,338.231 452.839,335.113 452.563,335.031 450.963,341.932 450.963,343.432 445.963,340.331 442.363,347.932 
		437.563,351.531 433.563,352.031 435.088,357.421 432.007,361.993 440.555,368.852 439.561,379.785 439.251,379.865 
		439.263,380.031 437.863,383.231 438.263,386.731 439.463,391.131 454.263,395.932 462.563,395.531 460.664,400.531 
		464.263,404.331 464.363,411.531 469.363,417.331 466.263,419.631 466.863,423.331 465.563,424.331 465.686,424.496 
		466.063,424.631 471.563,432.031 461.164,435.331 460.164,438.731 454.664,436.432 446.463,441.331 445.655,441.396 
		443.463,445.231 446.664,447.231 464.263,448.432 466.664,447.531 463.164,454.631 465.963,465.031 472.263,469.932 
		483.263,472.031 486.563,474.231 490.164,472.831 492.063,469.531 497.164,480.331 500.164,485.131 501.363,494.432 
		512.863,504.731 516.863,504.231 522.463,498.831 524.164,493.631 531.563,490.731 533.164,483.131 535.263,480.231 
		540.263,481.131 544.664,484.831 548.463,485.731 546.763,488.831 549.563,491.631 554.664,491.531 554.61,491.01 554.941,491.12 
		554.963,491.331 555.942,491.453 556.064,491.494 556.071,491.47 560.563,492.031 564.763,495.531 570.563,494.932 
		577.164,496.831 580.763,496.031 583.763,493.932 583.363,484.831 585.063,477.631 585.042,477.551 590.763,473.831 
		595.763,476.831 597.863,479.932 603.463,478.331 604.063,487.631 607.363,485.631 612.263,491.231 619.664,493.432 
		629.263,492.331 626.863,485.231 626.563,470.231 629.063,463.031 632.563,461.231 635.363,456.031 644.963,451.631 
		655.664,447.831 655.664,447.231 654.363,443.932 660.563,441.131 	"/>
</g>
<path style="fill:#0098FF;" d="M236.519,70.175c0,0-5.211-23.161-5.242-23.301c-0.143-0.014-14.929-1.448-14.929-1.448l-1.826-2.251
	l-0.235-0.28l-0.101-0.132l3.428-2.044l0.312-3.829l-3.208-7.396l1.458-5.685l3.332-2.417c0,0,4.832-1.944,4.989-2.008
	c-0.043-0.167-1.635-6.362-1.635-6.362l4.192-3.899c0,0,1.123-1.063,1.299-1.23c-0.245-0.125-8.081-4.111-8.081-4.111l-8.353,0.494
	l-7.837-2.395l-8.433,1.048c0,0-2.392-2.814-2.489-2.929c-0.14,0.069-16.448,8.148-16.448,8.148l-0.607,5.232l2.402,6.794
	l-2.512,8.329l-2.851,4.976l-9.883-1.34l-6.883-6.56l-4.118,0.358l-5.547-5.367c0,0-5.325-1.94-5.469-1.992
	c-0.085,0.127-4.06,6.041-4.06,6.041l-0.181,0.155l3.384,8.641l-1.297,1.896l-1.776,2.711l0.142,3.36l-0.02,0.264v0.003l-0.165,0.13
	l-8.251,0.389l-7.177,2.889l-3.329,1.987l-0.744,7.391l-0.092,0.093l-2.369,2.741l-1.92,7.141l-0.199,0.401l-0.689,1.08
	l-3.104,6.908l-0.137,0.247l-3.067,2.531l-4.078,0.795l-5.517-1.908l-8.865-4.401l-4.565,2.281c0,0-10.436-8.833-10.568-8.945
	c-0.124,0.112-2.389,2.16-2.389,2.16l-0.998,4.879l-0.239,3.693l-2.262,2.425l-0.599,3.354l1.398,10.847l-0.703,3.733l1.59,5.773
	l7.746,15.94l12.168,7.936l-0.412,6.651l-1.391,3.169l-2.104,10.527l1.577,5.155l5.715,7.852c0,0-1.51,3.209-1.581,3.359
	c0.142,0.094,10.822,7.172,10.822,7.172l-0.751,1.288c0,0-2.189,3.368-2.264,3.482c0.081,0.105,1.383,1.802,1.383,1.802l1.202,1.231
	c0,0,5.389,0.753,5.541,0.775c0.056-0.143,2.047-5.226,2.047-5.226l12.274,0.651c0,0,4.948,5.298,5.07,5.428
	c0.139-0.108,2.97-2.32,2.97-2.32l-0.232-6.02l-0.361-2.109l1.233-1.271l3.798-0.392l3.116,2.563l10.289,12.309l3.682,0.895
	l7.428-1.329l0.157-0.007l4.013-10.219l0.154-0.378l3.529-3.789l0.122-2.801l-0.005-5.091l3.044-1.244l4.792,0.676
	c0,0,0.771,0.077,0.914,0.092c0.042-0.163,1.584-6.21,1.584-6.21l6.73-5.25l9.438,8.52l5.575-0.895l3.299-1.066l0.322-5.371
	l2.778-4.432l0.429-5.7l-3.529-4.776l-0.434-5.488l-8.437-5.635l-2.425-3.33l1.155-4.046l0.393-1.439l0.104-0.073l0.087,0.012
	l0.417,0.007l7.58,1.063l4.731,3.67l8.056,1.26l3.583-4.97c0,0,3.719-8.792,3.788-8.954c-0.152-0.084-3.199-1.769-3.199-1.769
	l-0.664-5.617l7.264-8.286l-0.38-3.791l0.887-1.468l9.438-2.764l6.083-5.941l0.667-0.083l0.125-0.025
	C239.353,73.937,236.519,70.175,236.519,70.175z"/>
<g>
	<path style="fill:#0098FF;" d="M213.194,192.969l0.054-0.269c-0.161-0.05-2.502-0.771-2.502-0.771l-22.512-4.028l-8.366,8.33
		l-4.16,0.183l-5.023-3.365l0.001-0.455l-5.733-6.964l-5.881-0.6l-0.71,0.063l-0.014-0.093l0.024-0.229l0.276-0.184
		c-0.036-0.133-0.811-2.953-0.811-2.953s-0.229-1.508-0.257-1.688c-0.197,0.035-7.647,1.36-7.647,1.36l-3.776-0.929l-10.329-12.329
		l-3.028-2.528l-3.662,0.383l-1.146,1.154l0.442,2.317l0.193,5.833l-3.172,2.558l-5.196-5.536c0,0-11.885-0.59-12.028-0.597
		c-0.051,0.131-2.002,5.206-2.002,5.206l-5.746-0.787l-1.555-1.556c0,0-1.012-1.307-1.159-1.497
		c-0.063,0.093-0.137,0.201-0.137,0.201l-0.083-0.056l-0.003-0.002l-0.119-0.082l2.549-3.882c0,0,0.57-0.977,0.653-1.119
		c-0.156-0.103-10.636-7.036-10.636-7.036s-16.635,5.217-16.811,5.272c0.042,0.176,1.297,5.389,1.297,5.389l-7.116,3.241l0.06,3.683
		l-3.16,2.32c0,0,0,7.389,0,7.529c0.131,0.045,5.971,2.059,5.971,2.059l-2.209,0.99L50.978,205.03c0,0-3.765,0.564-3.919,0.588
		c-0.008,0.158-0.309,5.664-0.309,5.664l-3.849,6.583l-7.44-4.034l-3.77-0.104c0,0-8.787,2.539-8.928,2.58
		c-0.001,0.146-0.027,5.255-0.027,5.255l2.626,2.789l-0.718,3.59l-3.695-0.456l-2.614,4.217l-2.687,2.629l-9.916-1.626
		c0,0-5.597,5.211-5.731,5.336c0.119,0.145,17.662,21.478,17.662,21.478l1.382,10.355l3.223,4.559l5.184,0.2l0.202-0.004
		l4.898,2.955l1.836,3.451l5.763,1.447l2.892,5.088l12.219,15.541l1.801,8.403l1.17,6.89l-5.769,5.428l-0.023,3.436l4.746,5.655
		l-2.932,4.852l-1.772,3.811l-0.125,0.034l-0.1-0.087l-11.407-0.851l-1.787,3.06l-1.342,14.571l-0.056,0.647l-0.164,0.569
		l-5.34,3.725l-0.809,3.532l4.48,8.574l5.821,5.528l3.25,6.651l4.652,1.992l3.423-0.253l4.589-7.475l0.999-3.546l0.583-0.959
		l7.744-6.138l11.333-11.423c0,0,14.324-5.749,14.573-5.849l-0.099-0.12l5.483-1.398l2.283-2.939l5.625,0.229
		c0,0,2.277-2.277,2.422-2.423c-0.159-0.132-2.804-2.322-2.804-2.322l-4.486-2.753c0,0,5.983-9.61,6.096-9.792
		c-0.188-0.096-5.701-2.899-5.701-2.899l5.487-11.757l7.735,1.818l9.964-2.184l4.881-3.415l7.777,1.897l2.051,0.013l6.56-3.658
		c0,0,2.222-4.444,2.339-4.677c-0.267-0.042-18.621-2.909-18.621-2.909l-2.824-2.941l-1.687-5.783l4.426-6.627l4.761-3.246
		l1.11-3.724l4.786-7.855l0.716-8.647l6.438-9.858l5.889,1.432l6.353-4.418l7.521-0.256l1.954-2.88l3.42,2.136l0.518-0.044
		c0,0-2.268,12.721-2.296,12.88c0.151,0.06,13.138,5.177,13.138,5.177l8.25-4.602l-1.41-11.579l9.61-3.352l0.246-1.195l1.93-4.498
		l-2.703-2.99l1.239-3.438l-1.392-3.659l-4.16-1.881l-4.501-5.025l3.961-3.484l-0.927-6.402l2.419-0.957l1.996-3.351
		c0,0,11.154,1.059,11.449,1.086c-0.07-0.216-0.347-1.069-0.347-1.069s1.346,0.119,1.635,0.145c-0.151-0.29-1.444-2.777-1.444-2.777
		l1.538-9.752l2.353-3.049c0,0,0.772-4.924,0.807-5.145C214.367,192.969,213.194,192.969,213.194,192.969z"/>
</g>
<g>
	<path style="fill-rule:evenodd;clip-rule:evenodd;fill:#0098FF;" d="M309.01,143.525l-12.31-1.517l-2.28-1.866l8.455-9.566
		l-7.009-13.768l2.536-10.956c0,0,5.437-4.292,5.61-4.429c-0.156-0.153-3.907-3.811-3.907-3.811l-2.052-1.482l-5.084-0.508
		l-0.498-7.453c0,0-3.59-8.539-3.663-8.712c-0.178,0.065-16.707,6.152-16.707,6.152l-4.594-3.689l-5.37,2.607l-4.966-1.357
		l-2.169-5.061l-6.051-4.68l-5.746-0.708l-3.423,1.608l-0.949,0.173l-6.042,5.924l-9.441,2.754l-0.787,1.339l0.376,3.776
		l-7.277,8.322l0.648,5.424l3.281,1.743l-3.847,9.204l-3.696,5.041l-8.246-1.22l-4.753-3.68l-7.528-1.035l-0.362-0.138l-1.517,5.414
		l2.376,3.177l8.444,5.674l0.48,5.549l3.52,4.767l-0.415,5.846l-2.786,4.453l-0.366,5.389l-3.417,1.204l-5.683,0.876
		c0,0-9.314-8.334-9.438-8.444c-0.129,0.102-6.499,5.094-6.499,5.094l-1.554,6.213l-0.068,0.07l-0.086-0.008l-0.996-0.039
		l-4.753-0.746l-2.929,1.144l0.086,6.362l-0.082,1.418l-3.622,3.913l-4.095,10.532l0.27,1.778l0.848,3.08l-0.06,0.04l-0.163,0.153
		c0.188-0.016,0.417-0.036,0.417-0.036l5.967,0.636l5.823,7.06l-0.023,0.435l4.918,3.269l4.034-0.17l8.388-8.328l22.612,4.003
		l2.687,0.827l-0.031,0.157c0.183-0.014,0.697-0.055,0.809-0.063l0.035-0.185l0.124,0.075l0.11,0.089c0,0,0.169-0.013,0.28-0.022
		c-0.029-0.146-0.132-0.656-0.132-0.656l7.372,4.06l4.825-1.721l3.292-8.502l2.223,0.002l3.886-0.064l7.87,0.602l7.843-1.8
		l15.351,3.202c0,0,5.13-1.52,5.308-1.573c-0.043-0.173-0.826-3.302-0.859-3.436c-0.143-0.008-3.998-0.232-3.998-0.232l-2.375-2.892
		l8.032-4.569l6.061-1.294l5.72,2.5l0.181-0.079c0,0,4.234,6.116,4.371,6.313c0.164-0.173,4.496-4.78,4.496-4.78l1.349-3.18
		l0.073,0.029c0,0,8.013-1.271,8.173-1.296c0.005-0.162,0.217-7.173,0.217-7.173l0.45-0.612l2.397-3.364l1.843-6.107l1.524-3.232
		c0,0,3.394-3.017,3.529-3.137C313.713,149.476,309.06,143.588,309.01,143.525z M295.798,174.626l0.006-0.036l-0.016,0.037
		L295.798,174.626z"/>
</g>
<g>
	<polygon style="fill-rule:evenodd;clip-rule:evenodd;fill:#FFD400;" points="462.963,307.932 458.463,310.831 455.963,304.731 
		455.463,299.432 461.563,292.331 466.664,289.531 461.263,287.531 458.164,282.831 454.563,284.031 446.963,282.331 
		444.164,279.031 443.563,273.631 445.363,266.531 426.463,271.131 423.164,270.932 419.763,267.932 409.664,266.932 
		404.664,272.631 397.763,272.631 390.063,268.831 390.056,268.832 389.263,257.831 384.463,255.031 382.763,251.531 
		385.263,244.731 384.163,239.531 380.063,233.631 379.789,230.729 380.115,228.057 377.39,226.967 377.325,227.185 
		363.663,222.631 363.543,222.622 363.565,222.407 362.402,222.029 362.921,215.294 364.125,215.479 364.363,212.831 
		370.363,203.031 378.363,202.431 380.106,195.735 379.463,190.031 381.263,181.431 379.463,176.231 375.363,175.431 
		369.363,176.531 369.263,166.031 357.963,168.831 353.363,166.931 348.563,168.831 337.363,167.931 334.963,165.331 
		334.263,164.831 334.963,160.731 327.663,159.531 320.463,160.631 313.963,149.631 310.363,152.831 308.863,156.031 
		307.026,162.125 304.614,165.519 304.163,166.131 303.963,173.331 295.763,174.631 294.363,177.931 289.763,182.831 
		285.263,176.331 279.463,173.831 273.463,175.131 265.563,179.631 267.863,182.431 271.863,182.631 272.763,186.231 
		267.363,187.831 251.963,184.631 244.163,186.431 236.263,185.831 231.214,185.915 231.16,185.873 230.164,185.893 
		226.963,194.331 222.079,196.11 214.813,192.147 214.987,193.01 214.363,192.631 214.319,192.869 214.679,192.869 213.854,198.129 
		211.482,201.224 209.963,210.931 211.482,213.808 210.931,213.759 210.95,213.815 210.863,213.831 209.839,213.734 
		210.163,214.731 198.709,213.645 197.263,216.031 197.156,216.074 196.663,216.932 194.268,217.902 195.184,224.227 
		191.265,227.733 195.7,232.685 199.826,234.541 201.27,238.255 200.032,241.762 202.714,244.65 202.52,245.118 211.963,247.432 
		215.318,248.899 225.112,252.277 229.763,248.432 230.156,248.735 229.96,248.891 232.863,251.231 238.263,263.631 
		234.894,272.295 234.763,272.231 231.863,275.031 232.063,284.631 231.363,288.231 233.263,295.331 229.763,301.731 
		228.463,315.631 229.763,319.031 226.263,320.631 224.563,327.331 216.663,329.331 213.863,334.231 202.963,338.231 
		195.563,351.231 190.163,349.331 184.563,351.731 180.863,355.932 181.363,361.331 185.863,361.131 192.463,360.831 
		205.363,357.831 214.063,355.631 215.863,348.231 222.963,344.631 226.963,345.631 238.163,337.731 247.14,350.221 
		253.363,349.831 260.263,347.631 260.263,347.831 260.383,348.022 260.663,347.932 260.763,348.131 261.163,348.932 
		263.863,354.231 269.463,358.932 274.963,360.031 283.363,356.331 282.063,353.031 286.963,347.031 299.963,350.432 
		306.723,345.025 308.763,340.131 312.144,339.263 312.828,339.164 317.363,341.432 320.663,346.331 329.563,350.731 
		329.963,350.831 330.163,350.932 336.563,344.131 341.963,343.531 344.863,345.432 348.963,341.932 353.063,346.331 
		355.663,348.432 345.163,355.231 344.563,359.731 350.063,365.131 356.563,367.932 360.463,367.831 366.263,358.031 
		375.963,351.731 372.363,347.631 373.763,345.432 379.463,346.231 387.263,348.031 389.463,354.831 388.763,358.531 
		393.963,363.631 392.363,367.131 397.963,372.631 410.164,364.231 412.963,359.531 411.164,352.531 415.664,345.131 
		414.632,344.475 414.672,344.438 415.563,345.031 419.164,344.932 423.463,346.231 423.446,346.122 423.533,346.146 
		423.563,346.331 429.463,348.131 433.563,352.031 437.563,351.531 442.363,347.932 445.963,340.331 450.963,343.432 
		450.963,341.932 452.563,335.031 463.363,338.231 463.164,332.631 459.164,326.031 464.164,320.131 462.363,315.932 
		464.463,311.131 	"/>
</g>
</svg>
